<svg xmlns="http://www.w3.org/2000/svg" version="1.1" xmlns:xlink="http://www.w3.org/1999/xlink" xmlns:svgjs="http://svgjs.dev/svgjs" width="1000" height="623" viewBox="0 0 1000 623"><g transform="matrix(1,0,0,1,-0.6060606060606233,0.2522267206477409)"><svg viewBox="0 0 396 247" data-background-color="#ffffff" preserveAspectRatio="xMidYMid meet" height="623" width="1000" xmlns="http://www.w3.org/2000/svg" xmlns:xlink="http://www.w3.org/1999/xlink"><g id="tight-bounds" transform="matrix(1,0,0,1,0.2400000000000091,-0.09999999999999432)"><svg viewBox="0 0 395.52 247.2" height="247.2" width="395.52"><g><svg></svg></g><g><svg viewBox="0 0 395.52 247.2" height="247.2" width="395.52"><g transform="matrix(1,0,0,1,75.54432,90.23025296796824)"><svg viewBox="0 0 244.43135999999998 66.7394940640635" height="66.7394940640635" width="244.43135999999998"><g><svg viewBox="0 0 244.43135999999998 66.7394940640635" height="66.7394940640635" width="244.43135999999998"><g><svg viewBox="0 0 244.43135999999998 66.7394940640635" height="66.7394940640635" width="244.43135999999998"><g><svg viewBox="0 0 244.43135999999998 66.7394940640635" height="66.7394940640635" width="244.43135999999998"><g><svg viewBox="0 0 244.43135999999998 66.7394940640635" height="66.7394940640635" width="244.43135999999998"><g><svg viewBox="0 0 244.43135999999998 35.99609404580153" height="35.99609404580153" width="244.43135999999998"><g transform="matrix(1,0,0,1,0,0)"><svg width="244.43135999999998" viewBox="4.449999809265137 -36.25 314.3599853515625 46.29999923706055" height="35.99609404580153" data-palette-color="#124948"><path d="M9.95 0L4.45 0 4.45-36.25 14.35-36.25Q17.2-36.25 19.58-35.5 21.95-34.75 23.68-33.27 25.4-31.8 26.35-29.68 27.3-27.55 27.3-24.8L27.3-24.8Q27.3-23.3 27-21.83 26.7-20.35 26.03-18.98 25.35-17.6 24.3-16.43 23.25-15.25 21.75-14.45L21.75-14.45Q23.75-11.3 26.1-7.48 28.45-3.65 30.85 0L30.85 0 24.3 0Q23.3-1.55 22.23-3.25 21.15-4.95 20.08-6.63 19-8.3 17.98-9.93 16.95-11.55 16.05-12.95L16.05-12.95 15.05-12.95 9.95-12.95 9.95 0ZM9.95-31.15L9.95-18.1 14.9-18.1Q16.9-18.1 18.25-18.78 19.6-19.45 20.38-20.45 21.15-21.45 21.48-22.6 21.8-23.75 21.8-24.7L21.8-24.7Q21.8-25.65 21.48-26.78 21.15-27.9 20.35-28.88 19.55-29.85 18.23-30.5 16.9-31.15 14.95-31.15L14.95-31.15 9.95-31.15ZM47-5.55L50.2-2.45Q48.7-1.1 46.55-0.3 44.4 0.5 42.15 0.5L42.15 0.5Q39.85 0.5 37.82-0.38 35.8-1.25 34.3-2.73 32.8-4.2 31.92-6.2 31.05-8.2 31.05-10.45L31.05-10.45Q31.05-12.7 31.92-14.7 32.8-16.7 34.3-18.2 35.8-19.7 37.77-20.58 39.75-21.45 42-21.45L42-21.45Q45.55-21.45 48.17-19.33 50.8-17.2 51.95-13.75L51.95-13.75Q50.4-13.2 48.4-12.4 46.4-11.6 44.25-10.73 42.1-9.85 39.95-9 37.8-8.15 35.95-7.45L35.95-7.45Q36.8-5.75 38.42-4.73 40.05-3.7 42.05-3.7L42.05-3.7Q43.4-3.7 44.77-4.2 46.15-4.7 47-5.55L47-5.55ZM46.6-14.75L46.6-14.75Q46-16 44.7-16.63 43.4-17.25 42.05-17.25L42.05-17.25Q40.6-17.25 39.37-16.7 38.15-16.15 37.25-15.23 36.35-14.3 35.82-13.1 35.3-11.9 35.3-10.65L35.3-10.65Q35.3-10.4 35.32-10.3 35.35-10.2 35.35-10.15L35.35-10.15Q36.65-10.65 38.17-11.28 39.7-11.9 41.2-12.53 42.7-13.15 44.1-13.73 45.5-14.3 46.6-14.75ZM54.2-10.25L54.2-10.25Q54.2-12.55 55.07-14.58 55.95-16.6 57.45-18.13 58.95-19.65 60.92-20.55 62.9-21.45 65.15-21.45L65.15-21.45Q66.65-21.45 67.9-21.08 69.15-20.7 70.05-20.15 70.95-19.6 71.5-19 72.05-18.4 72.25-17.95L72.25-17.95 72.45-20.9 76.55-20.9 76.55 0 72.25 0 72.25-2.65Q72-2.25 71.45-1.7 70.9-1.15 70.02-0.68 69.15-0.2 67.95 0.15 66.75 0.5 65.2 0.5L65.2 0.5Q62.8 0.5 60.77-0.38 58.75-1.25 57.3-2.73 55.85-4.2 55.02-6.15 54.2-8.1 54.2-10.25ZM58.5-10.5L58.5-10.5Q58.5-9.05 59.02-7.8 59.55-6.55 60.45-5.65 61.35-4.75 62.6-4.23 63.85-3.7 65.35-3.7L65.35-3.7Q66.85-3.7 68.12-4.23 69.4-4.75 70.32-5.68 71.25-6.6 71.75-7.83 72.25-9.05 72.25-10.5L72.25-10.5Q72.25-11.95 71.75-13.18 71.25-14.4 70.32-15.3 69.4-16.2 68.12-16.73 66.85-17.25 65.35-17.25L65.35-17.25Q63.85-17.25 62.6-16.73 61.35-16.2 60.45-15.3 59.55-14.4 59.02-13.18 58.5-11.95 58.5-10.5ZM96.54-5.15L96.54-5.15Q97.24-4.3 97.87-3.53 98.49-2.75 99.14-1.9L99.14-1.9Q97.74-0.8 95.99-0.15 94.24 0.5 92.19 0.5L92.19 0.5Q89.89 0.5 87.87-0.38 85.84-1.25 84.34-2.75 82.84-4.25 81.97-6.25 81.09-8.25 81.09-10.5L81.09-10.5Q81.09-12.75 81.97-14.75 82.84-16.75 84.34-18.23 85.84-19.7 87.87-20.58 89.89-21.45 92.19-21.45L92.19-21.45Q94.29-21.45 96.07-20.8 97.84-20.15 99.29-19.05L99.29-19.05 96.54-15.8Q95.69-16.5 94.59-16.88 93.49-17.25 92.19-17.25L92.19-17.25Q90.69-17.25 89.44-16.73 88.19-16.2 87.27-15.3 86.34-14.4 85.84-13.18 85.34-11.95 85.34-10.5L85.34-10.5Q85.34-9.05 85.84-7.83 86.34-6.6 87.27-5.68 88.19-4.75 89.44-4.23 90.69-3.7 92.19-3.7L92.19-3.7Q93.49-3.7 94.59-4.08 95.69-4.45 96.54-5.15ZM105.14-20.85L105.14-30.1 109.39-30.1 109.39-20.85 114.99-20.85 114.99-17.05 109.39-17.05 109.39 0 105.14 0 105.14-17.05 101.39-17.05 101.39-20.85 105.14-20.85ZM131.09-31.15L131.09-18.1 136.04-18.1Q138.04-18.1 139.39-18.8 140.74-19.5 141.51-20.5 142.29-21.5 142.61-22.65 142.94-23.8 142.94-24.7L142.94-24.7Q142.94-25.65 142.61-26.78 142.29-27.9 141.49-28.88 140.69-29.85 139.36-30.5 138.04-31.15 136.09-31.15L136.09-31.15 131.09-31.15ZM131.09 0L125.59 0 125.59-36.25 135.49-36.25Q138.34-36.25 140.71-35.5 143.09-34.75 144.81-33.27 146.54-31.8 147.49-29.68 148.44-27.55 148.44-24.8L148.44-24.8Q148.44-22.65 147.79-20.53 147.14-18.4 145.69-16.73 144.24-15.05 141.89-14 139.54-12.95 136.19-12.95L136.19-12.95 131.09-12.95 131.09 0ZM164.13-21.45L163.18-15.95Q161.78-15.95 160.48-15.58 159.18-15.2 158.16-14.45 157.13-13.7 156.53-12.58 155.93-11.45 155.93-10L155.93-10 155.93 0 151.68 0 151.68-20.9 155.43-20.9Q155.53-19.35 155.61-18.07 155.68-16.8 155.78-15.55L155.78-15.55Q156.43-16.9 157.48-18 158.53-19.1 159.73-19.85 160.93-20.6 162.08-21.03 163.23-21.45 164.13-21.45L164.13-21.45ZM165.38-10.5L165.38-10.5Q165.38-12.75 166.26-14.75 167.13-16.75 168.63-18.23 170.13-19.7 172.16-20.58 174.18-21.45 176.53-21.45L176.53-21.45Q178.88-21.45 180.91-20.58 182.93-19.7 184.41-18.23 185.88-16.75 186.71-14.75 187.53-12.75 187.53-10.5L187.53-10.5Q187.53-8.25 186.71-6.25 185.88-4.25 184.41-2.75 182.93-1.25 180.91-0.38 178.88 0.5 176.48 0.5L176.48 0.5Q174.18 0.5 172.16-0.3 170.13-1.1 168.63-2.55 167.13-4 166.26-6.03 165.38-8.05 165.38-10.5ZM169.63-10.45L169.63-10.45Q169.63-9.05 170.16-7.83 170.68-6.6 171.61-5.68 172.53-4.75 173.76-4.23 174.98-3.7 176.38-3.7L176.38-3.7Q177.78-3.7 179.03-4.23 180.28-4.75 181.21-5.68 182.13-6.6 182.68-7.83 183.23-9.05 183.23-10.45L183.23-10.45Q183.23-11.85 182.68-13.1 182.13-14.35 181.21-15.28 180.28-16.2 179.03-16.73 177.78-17.25 176.38-17.25L176.38-17.25Q174.98-17.25 173.76-16.73 172.53-16.2 171.61-15.28 170.68-14.35 170.16-13.1 169.63-11.85 169.63-10.45ZM209.78-10.5L209.78-10.5Q209.78-11.95 209.33-13.18 208.88-14.4 208.03-15.3 207.18-16.2 205.98-16.73 204.78-17.25 203.28-17.25L203.28-17.25Q201.78-17.25 200.5-16.73 199.23-16.2 198.33-15.3 197.43-14.4 196.9-13.18 196.38-11.95 196.38-10.5L196.38-10.5Q196.38-9.05 196.9-7.8 197.43-6.55 198.33-5.65 199.23-4.75 200.5-4.23 201.78-3.7 203.28-3.7L203.28-3.7Q204.78-3.7 205.98-4.23 207.18-4.75 208.03-5.68 208.88-6.6 209.33-7.83 209.78-9.05 209.78-10.5ZM214.43-10.4L214.43-10.4Q214.43-8.05 213.63-6.05 212.83-4.05 211.38-2.6 209.93-1.15 207.9-0.33 205.88 0.5 203.48 0.5L203.48 0.5Q202.23 0.5 201.1 0.23 199.98-0.05 199.03-0.53 198.08-1 197.38-1.58 196.68-2.15 196.33-2.75L196.33-2.75Q196.33-2.5 196.35-2.23 196.38-1.95 196.38-1.7L196.38-1.7 196.38 10.05 192.08 10.05 192.08-20.9 196.23-20.9Q196.23-20.3 196.3-19.43 196.38-18.55 196.38-17.85L196.38-17.85Q196.78-18.45 197.45-19.07 198.13-19.7 199.05-20.23 199.98-20.75 201.13-21.1 202.28-21.45 203.68-21.45L203.68-21.45Q206.08-21.45 208.05-20.68 210.03-19.9 211.45-18.48 212.88-17.05 213.65-15 214.43-12.95 214.43-10.4ZM233.58-5.55L236.78-2.45Q235.28-1.1 233.13-0.3 230.98 0.5 228.73 0.5L228.73 0.5Q226.43 0.5 224.4-0.38 222.38-1.25 220.88-2.73 219.38-4.2 218.5-6.2 217.63-8.2 217.63-10.45L217.63-10.45Q217.63-12.7 218.5-14.7 219.38-16.7 220.88-18.2 222.38-19.7 224.35-20.58 226.33-21.45 228.58-21.45L228.58-21.45Q232.13-21.45 234.75-19.33 237.38-17.2 238.53-13.75L238.53-13.75Q236.98-13.2 234.98-12.4 232.98-11.6 230.83-10.73 228.68-9.85 226.53-9 224.38-8.15 222.53-7.45L222.53-7.45Q223.38-5.75 225-4.73 226.63-3.7 228.63-3.7L228.63-3.7Q229.98-3.7 231.35-4.2 232.73-4.7 233.58-5.55L233.58-5.55ZM233.18-14.75L233.18-14.75Q232.58-16 231.28-16.63 229.98-17.25 228.63-17.25L228.63-17.25Q227.18-17.25 225.95-16.7 224.73-16.15 223.83-15.23 222.93-14.3 222.4-13.1 221.88-11.9 221.88-10.65L221.88-10.65Q221.88-10.4 221.9-10.3 221.93-10.2 221.93-10.15L221.93-10.15Q223.23-10.65 224.75-11.28 226.28-11.9 227.78-12.53 229.28-13.15 230.68-13.73 232.08-14.3 233.18-14.75ZM254.67-21.45L253.72-15.95Q252.32-15.95 251.02-15.58 249.72-15.2 248.7-14.45 247.67-13.7 247.07-12.58 246.47-11.45 246.47-10L246.47-10 246.47 0 242.22 0 242.22-20.9 245.97-20.9Q246.07-19.35 246.15-18.07 246.22-16.8 246.32-15.55L246.32-15.55Q246.97-16.9 248.02-18 249.07-19.1 250.27-19.85 251.47-20.6 252.62-21.03 253.77-21.45 254.67-21.45L254.67-21.45ZM259.57-20.85L259.57-30.1 263.82-30.1 263.82-20.85 269.42-20.85 269.42-17.05 263.82-17.05 263.82 0 259.57 0 259.57-17.05 255.82-17.05 255.82-20.85 259.57-20.85ZM272.42-28.9L272.42-28.9Q272.42-30.1 273.29-30.9 274.17-31.7 275.17-31.7L275.17-31.7Q276.17-31.7 277.02-30.9 277.87-30.1 277.87-28.9L277.87-28.9Q277.87-27.7 277.02-26.93 276.17-26.15 275.17-26.15L275.17-26.15Q274.17-26.15 273.29-26.93 272.42-27.7 272.42-28.9ZM277.22-20.9L277.22 0 272.97 0 272.97-20.9 277.22-20.9ZM297.72-5.55L300.92-2.45Q299.42-1.1 297.27-0.3 295.12 0.5 292.87 0.5L292.87 0.5Q290.57 0.5 288.54-0.38 286.52-1.25 285.02-2.73 283.52-4.2 282.64-6.2 281.77-8.2 281.77-10.45L281.77-10.45Q281.77-12.7 282.64-14.7 283.52-16.7 285.02-18.2 286.52-19.7 288.49-20.58 290.47-21.45 292.72-21.45L292.72-21.45Q296.27-21.45 298.89-19.33 301.52-17.2 302.67-13.75L302.67-13.75Q301.12-13.2 299.12-12.4 297.12-11.6 294.97-10.73 292.82-9.85 290.67-9 288.52-8.15 286.67-7.45L286.67-7.45Q287.52-5.75 289.14-4.73 290.77-3.7 292.77-3.7L292.77-3.7Q294.12-3.7 295.49-4.2 296.87-4.7 297.72-5.55L297.72-5.55ZM297.32-14.75L297.32-14.75Q296.72-16 295.42-16.63 294.12-17.25 292.77-17.25L292.77-17.25Q291.32-17.25 290.09-16.7 288.87-16.15 287.97-15.23 287.07-14.3 286.54-13.1 286.02-11.9 286.02-10.65L286.02-10.65Q286.02-10.4 286.04-10.3 286.07-10.2 286.07-10.15L286.07-10.15Q287.37-10.65 288.89-11.28 290.42-11.9 291.92-12.53 293.42-13.15 294.82-13.73 296.22-14.3 297.32-14.75ZM318.01-19.05L318.01-19.05 315.76-16.05Q315.71-16.1 315.41-16.3 315.11-16.5 314.64-16.7 314.16-16.9 313.54-17.07 312.91-17.25 312.26-17.25L312.26-17.25Q311.41-17.25 310.59-16.85 309.76-16.45 309.76-15.35L309.76-15.35Q309.76-14.4 310.44-13.8 311.11-13.2 312.11-12.73 313.11-12.25 314.29-11.75 315.46-11.25 316.46-10.53 317.46-9.8 318.14-8.72 318.81-7.65 318.81-6L318.81-6Q318.81-3.2 316.89-1.38 314.96 0.45 311.61 0.45L311.61 0.45Q309.66 0.45 307.79-0.23 305.91-0.9 304.76-2.2L304.76-2.2Q305.11-2.55 305.54-3.1 305.96-3.65 306.39-4.15 306.81-4.65 307.09-4.98 307.36-5.3 307.41-5.3L307.41-5.3Q307.41-5.25 307.79-5 308.16-4.75 308.76-4.48 309.36-4.2 310.11-3.98 310.86-3.75 311.61-3.75L311.61-3.75Q312.81-3.75 313.66-4.35 314.51-4.95 314.51-5.95L314.51-5.95Q314.51-6.85 313.84-7.38 313.16-7.9 312.16-8.35 311.16-8.8 309.96-9.28 308.76-9.75 307.76-10.5 306.76-11.25 306.09-12.38 305.41-13.5 305.41-15.3L305.41-15.3Q305.41-17 306.04-18.15 306.66-19.3 307.64-20.03 308.61-20.75 309.81-21.08 311.01-21.4 312.11-21.4L312.11-21.4Q313.56-21.4 315.21-20.8 316.86-20.2 318.01-19.05Z" opacity="1" transform="matrix(1,0,0,1,0,0)" fill="#124948" class="undefined-text-0" data-fill-palette-color="primary" id="text-0"></path></svg></g></svg></g><g transform="matrix(1,0,0,1,0,44.49390794375817)"><svg viewBox="0 0 244.43135999999998 22.245586120305344" height="22.245586120305344" width="244.43135999999998"><g transform="matrix(1,0,0,1,0,0)"><svg width="244.43135999999998" viewBox="1.7599999904632568 -40.599998474121094 452.2799987792969 41.15999984741211" height="22.245586120305344" data-palette-color="#abddd9"><path d="M27.73-31.23L27.73-31.23Q28.39-29.54 28.39-27.39 28.39-25.24 27.72-23.49 27.05-21.73 25.78-20.46L25.78-20.46Q23.36-18.04 18.68-17.07L18.68-17.07 19.12-17.87 28.76-3.22 30.47-2.47 33.91-2.08 33.91 0 25.54 0 14.55-17.55 16.6-16.67 10.06-16.67 10.06-2.64 13.72-2.08 13.72 0 1.76 0 1.76-2.08 5.54-2.64 5.54-34.18 1.76-34.74 1.76-36.82 13.79-36.82Q25.49-36.82 27.73-31.23ZM14.04-33.86L10.06-33.86 10.06-19.31 13.67-19.31Q21.58-19.31 23.24-23.93L23.24-23.93Q23.75-25.32 23.75-26.94 23.75-28.56 23.29-29.86 22.83-31.15 21.73-32.03L21.73-32.03Q19.46-33.86 14.04-33.86L14.04-33.86ZM76.28-5.59L76.28-5.59 77.67-4Q73.79-0.51 70.15 0.37L70.15 0.37Q69.34 0.56 68.56 0.56L68.56 0.56Q63.19 0.56 59.82-2.83L59.82-2.83Q56.48-6.15 56.48-11.5L56.48-11.5Q56.48-16.82 59.63-20.61L59.63-20.61Q63.09-24.73 68.63-24.73L68.63-24.73Q72.47-24.73 75.1-21.97L75.1-21.97Q77.91-19.09 77.91-14.48L77.91-14.48 76.76-13.45 60.85-12.3Q60.89-7.86 63.73-5.2L63.73-5.2Q66.27-2.86 69.64-2.86 73-2.86 76.28-5.59ZM61.02-14.6L61.02-14.6 73.57-15.75Q73.39-19.8 70.44-21.31L70.44-21.31Q69.39-21.85 67.76-21.85 66.12-21.85 64.84-21.04 63.56-20.24 62.73-19.09L62.73-19.09Q61.14-16.92 61.02-14.6ZM125.6-3.56L126.04-1.27Q122.47 0.56 120.89 0.56L120.89 0.56Q117.32 0.56 117.32-2.47L117.32-2.47 117.32-3.22Q116.98-2.71 115.45-1.73 113.93-0.76 113.07-0.37L113.07-0.37Q111.05 0.56 110 0.56 108.95 0.56 108.26 0.48 107.58 0.39 106.85 0.15 106.12-0.1 105.41-0.54 104.7-0.98 104.14-1.68L104.14-1.68Q102.89-3.25 102.89-5.76L102.89-5.76Q102.89-9.23 105.36-10.6L105.36-10.6Q106.92-11.5 108.67-11.72 110.41-11.94 111.85-12.06L111.85-12.06Q114.59-12.3 117.32-12.35L117.32-12.35 117.32-17.48Q117.32-19.6 116.78-20.31L116.78-20.31Q115.88-21.56 113.98-21.56L113.98-21.56Q109.73-21.56 105.63-18.8L105.63-18.8 104.21-20.92Q109.92-24.73 114.44-24.73L114.44-24.73Q118.37-24.73 120.01-22.56L120.01-22.56Q121.28-20.87 121.28-17.77L121.28-17.77 121.28-4.93Q121.28-3.13 121.96-2.88L121.96-2.88Q122.2-2.81 122.6-2.81L122.6-2.81Q123.57-2.81 125.6-3.56L125.6-3.56ZM117.32-5.47L117.32-10.3Q110.39-10.03 108.44-8.91L108.44-8.91Q106.95-8.06 106.95-6.15L106.95-6.15Q106.95-3.39 109.07-2.76L109.07-2.76Q109.66-2.59 110.5-2.59 111.34-2.59 112.46-2.93 113.59-3.27 114.54-3.76L114.54-3.76Q116.35-4.64 117.32-5.47L117.32-5.47ZM155.76-40.6L155.76-2.59 158.88-2.03 158.88 0 148.63 0 148.63-2.03 151.8-2.59 151.8-36.21 148.63-36.82 148.63-38.79 155.76-40.6ZM241.17-5.59L241.17-5.59 242.56-4Q238.68-0.51 235.04 0.37L235.04 0.37Q234.23 0.56 233.45 0.56L233.45 0.56Q228.08 0.56 224.71-2.83L224.71-2.83Q221.37-6.15 221.37-11.5L221.37-11.5Q221.37-16.82 224.52-20.61L224.52-20.61Q227.98-24.73 233.53-24.73L233.53-24.73Q237.36-24.73 240-21.97L240-21.97Q242.8-19.09 242.8-14.48L242.8-14.48 241.66-13.45 225.74-12.3Q225.79-7.86 228.62-5.2L228.62-5.2Q231.16-2.86 234.53-2.86 237.9-2.86 241.17-5.59ZM225.91-14.6L225.91-14.6 238.46-15.75Q238.29-19.8 235.33-21.31L235.33-21.31Q234.28-21.85 232.65-21.85 231.01-21.85 229.73-21.04 228.45-20.24 227.62-19.09L227.62-19.09Q226.03-16.92 225.91-14.6ZM268.96-7.13L270.23-7.13Q270.23-2.03 276.48-2.03L276.48-2.03Q278.85-2.03 280.26-3.08L280.26-3.08Q281.56-4.03 281.56-5.47L281.56-5.47Q281.56-6.98 280.8-7.81L280.8-7.81Q279.31-9.45 276.49-10.42 273.67-11.4 272.27-12.29 270.86-13.18 270.06-14.16L270.06-14.16Q268.66-15.82 268.66-17.74 268.66-19.65 269.39-20.87 270.11-22.09 271.28-22.95L271.28-22.95Q273.77-24.73 277.04-24.73L277.04-24.73Q280.97-24.73 283.9-23L283.9-23 283.34-18.29 282.02-18.29Q282.02-22.12 276.92-22.12L276.92-22.12Q274.7-22.12 273.55-21.25 272.4-20.39 272.4-19.09L272.4-19.09Q272.4-16.24 278.77-13.92L278.77-13.92Q284.73-11.72 285.49-8.18L285.49-8.18Q285.68-7.18 285.68-5.8 285.68-4.42 284.79-3.13 283.9-1.83 282.56-1.03L282.56-1.03Q279.94 0.56 276.53 0.56L276.53 0.56Q273.18 0.56 270.28-0.73L270.28-0.73Q268.98-1.29 268.03-2.03L268.03-2.03 268.96-7.13ZM316.45-21.29L316.45-7.47Q316.45-2.59 320.4-2.59L320.4-2.59Q322.48-2.59 324.43-4.3L324.43-4.3 325.75-2.69Q323.68-0.98 321.92-0.21 320.16 0.56 318.82 0.56 317.47 0.56 316.22-0.02 314.96-0.61 314.13-1.71L314.13-1.71Q312.49-3.83 312.49-7.74L312.49-7.74 312.49-21.29 309.39-21.29 309.39-23.41 312.49-24.15 312.49-27.42 315.38-30.3 316.45-30.3 316.45-24.15 324.51-24.15 324.51-21.29 316.45-21.29ZM370.8-3.56L371.24-1.27Q367.68 0.56 366.09 0.56L366.09 0.56Q362.52 0.56 362.52-2.47L362.52-2.47 362.52-3.22Q362.18-2.71 360.66-1.73 359.13-0.76 358.28-0.37L358.28-0.37Q356.25 0.56 355.2 0.56 354.15 0.56 353.47 0.48 352.78 0.39 352.05 0.15 351.32-0.1 350.61-0.54 349.9-0.98 349.34-1.68L349.34-1.68Q348.1-3.25 348.1-5.76L348.1-5.76Q348.1-9.23 350.56-10.6L350.56-10.6Q352.12-11.5 353.87-11.72 355.62-11.94 357.06-12.06L357.06-12.06Q359.79-12.3 362.52-12.35L362.52-12.35 362.52-17.48Q362.52-19.6 361.99-20.31L361.99-20.31Q361.08-21.56 359.18-21.56L359.18-21.56Q354.93-21.56 350.83-18.8L350.83-18.8 349.41-20.92Q355.13-24.73 359.64-24.73L359.64-24.73Q363.57-24.73 365.21-22.56L365.21-22.56Q366.48-20.87 366.48-17.77L366.48-17.77 366.48-4.93Q366.48-3.13 367.16-2.88L367.16-2.88Q367.41-2.81 367.8-2.81L367.8-2.81Q368.77-2.81 370.8-3.56L370.8-3.56ZM362.52-5.47L362.52-10.3Q355.59-10.03 353.64-8.91L353.64-8.91Q352.15-8.06 352.15-6.15L352.15-6.15Q352.15-3.39 354.27-2.76L354.27-2.76Q354.86-2.59 355.7-2.59 356.54-2.59 357.67-2.93 358.79-3.27 359.74-3.76L359.74-3.76Q361.55-4.64 362.52-5.47L362.52-5.47ZM400.96-21.29L400.96-7.47Q400.96-2.59 404.91-2.59L404.91-2.59Q406.99-2.59 408.94-4.3L408.94-4.3 410.26-2.69Q408.19-0.98 406.43-0.21 404.67 0.56 403.33 0.56 401.98 0.56 400.73-0.02 399.47-0.61 398.64-1.71L398.64-1.71Q397-3.83 397-7.74L397-7.74 397-21.29 393.9-21.29 393.9-23.41 397-24.15 397-27.42 399.88-30.3 400.96-30.3 400.96-24.15 409.02-24.15 409.02-21.29 400.96-21.29ZM452.41-5.59L452.41-5.59 453.8-4Q449.92-0.51 446.28 0.37L446.28 0.37Q445.47 0.56 444.69 0.56L444.69 0.56Q439.32 0.56 435.95-2.83L435.95-2.83Q432.61-6.15 432.61-11.5L432.61-11.5Q432.61-16.82 435.76-20.61L435.76-20.61Q439.22-24.73 444.76-24.73L444.76-24.73Q448.6-24.73 451.23-21.97L451.23-21.97Q454.04-19.09 454.04-14.48L454.04-14.48 452.89-13.45 436.98-12.3Q437.02-7.86 439.86-5.2L439.86-5.2Q442.4-2.86 445.76-2.86 449.13-2.86 452.41-5.59ZM437.15-14.6L437.15-14.6 449.7-15.75Q449.52-19.8 446.57-21.31L446.57-21.31Q445.52-21.85 443.89-21.85 442.25-21.85 440.97-21.04 439.69-20.24 438.86-19.09L438.86-19.09Q437.27-16.92 437.15-14.6Z" opacity="1" transform="matrix(1,0,0,1,0,0)" fill="#abddd9" class="undefined-text-1" data-fill-palette-color="secondary" id="text-1"></path></svg></g></svg></g></svg></g></svg></g></svg></g></svg></g></svg></g><path d="M206.713 84.23L206.713 21.178 1.87 21.178 1.87 226.022 206.713 226.022 206.713 162.97 203.467 162.97 203.467 222.776 5.116 222.776 5.116 24.424 203.467 24.424 203.467 84.23Z" fill="#124948" stroke="transparent" data-fill-palette-color="primary"></path></svg></g><defs></defs></svg><rect width="395.52" height="247.2" fill="none" stroke="none" visibility="hidden"></rect></g></svg></g></svg>